<svg version="1.2" xmlns="http://www.w3.org/2000/svg" viewBox="0 0 1136 256" width="142" height="32">
	<path fill-rule="evenodd" fill="currentColor" d="m120.5 9h85l48.5 113.1c26.7 62.2 48.8 113.3 49.3 113.5 0.4 0.2 0.7-50.7 0.8-226.6l93.1 0.5 36.8 80c20.3 44 37.3 80.6 37.7 81.4 0.5 0.9 12.9-27.2 69.9-161.4l95.1-0.5 0.3 240h-58l-0.1-79.8c-0.1-43.8-0.4-86.1-1.4-108.1l-83 187.9-50-0.5-41.5-93.7c-22.8-51.6-41.8-93.8-42.2-93.8-0.5 0-0.8 42.3-0.8 188l-115.5 0.1-22.3-53.6h-120.5l-22.2 53.5h-30.7c-17.6 0-30.7-0.4-30.5-0.9 0.1-0.5 23.2-54.5 51.2-120zm551.5 1h230.5l35 39c19.3 21.5 35.2 39 35.5 39 0.3 0.1 4.1-3.7 8.5-8.3 4.4-4.5 20.8-22.1 65-69.8l74 0.1-3.6 3.7c-2 2.1-24.2 26-49.5 53.3-25.2 27.2-48.5 52.3-51.6 55.7-3.2 3.5-5.6 6.8-5.4 7.5 0.2 0.7 23.6 27.2 52.1 58.8 28.5 31.6 52.5 58.3 53.4 59.3 1.5 1.7 0 1.7-72.4 1.5l-31-34.9c-17-19.2-33-37.2-40-45.1l-74 80.2h-226.5zm-529.8 86.3c-10.6 25.9-19.2 47.7-19.2 48.4 0 1 8.5 1.3 39 1.3 36.6 0 39-0.1 38.7-1.8-0.2-0.9-8.8-22.4-19.2-47.7-10.4-25.3-19.1-46.3-19.4-46.7-0.3-0.4-9.3 20.5-19.9 46.5zm585.8 6.7h126v49h-126v48h142.5c42.6-46 57.4-61.9 60.3-65.2l5.2-5.8-63-70h-145z"/>
</svg>
