<svg version="1.2" xmlns="http://www.w3.org/2000/svg" viewBox="0 0 1152 200" width="144" height="25">
	<path fill-rule="evenodd" fill="currentColor" d="m615.5 3.6c5.8 0.2 14 1.4 19.5 2.8 5.2 1.3 12.9 3.9 17 5.8 4.1 1.9 10.4 5.4 14 7.8 3.6 2.3 10.3 8.2 15 13 5.2 5.4 10.4 11.9 13.4 17.1 2.8 4.6 6.2 11.8 7.7 15.9 1.5 4.1 3.5 11.3 4.4 16 1.4 6.6 1.6 11.5 1.2 22-0.3 8-1.2 16.1-2.3 20-0.9 3.6-3.1 9.9-4.8 14-1.8 4.1-5.4 10.9-8 15-2.7 4.1-8.3 10.9-12.5 15.1-4.2 4.2-11 9.8-15.1 12.5-4.1 2.7-10.9 6.4-15 8.1-4.1 1.8-11.3 4.1-16 5.2-4.7 1.1-11.6 2.2-15.5 2.6-3.9 0.4-11.4 0.2-16.8-0.4-5.3-0.6-13.4-2.3-17.9-3.7-4.6-1.4-11.4-4.2-15.3-6.1-3.9-1.9-9.7-5.4-13-7.8-3.3-2.3-8.9-7.1-12.4-10.6-3.5-3.5-8.9-10.2-12-14.9-3.1-4.7-7.1-12.1-8.8-16.5-1.7-4.4-4-11.4-5-15.5-1.3-5.5-1.8-11.1-1.7-21.5 0-10.7 0.5-15.9 2.1-22 1.1-4.4 3.5-11.4 5.3-15.5 1.7-4.1 5.7-11.3 8.8-16 3.1-4.6 8.4-11.2 11.7-14.5 3.3-3.3 9.9-8.5 14.5-11.6 4.7-3.2 11.6-7 15.5-8.6 3.9-1.6 9.9-3.7 13.5-4.7 3.6-1 9.2-2.2 12.5-2.6 3.3-0.5 10.5-0.7 16-0.4zm-157 0.5c2.2 0 8.3 0.6 13.5 1.4 5.2 0.8 12.6 2.5 16.5 3.8 3.9 1.4 8.7 3.3 14.5 6.2v40.5l-6.4-5.3c-3.5-2.8-9.2-6.7-12.7-8.5-3.5-1.8-9.5-3.9-13.4-4.7-3.9-0.8-9.3-1.5-12-1.5-2.8 0-8.1 0.7-12 1.5-3.9 0.8-10.4 3.1-14.5 5.1-5.6 2.7-9.4 5.7-15 11.3-4.3 4.4-8.8 10.2-10.6 13.6-1.7 3.3-3.9 8.2-4.8 11-0.9 2.7-2 8.6-2.5 13-0.6 4.8-0.6 11.2 0 16.3 0.5 4.5 2.1 11.5 3.5 15.4 1.5 4 4.1 9.5 5.9 12.3 1.7 2.7 5.2 7 7.6 9.4 2.4 2.4 6.4 5.7 8.9 7.4 2.5 1.7 6.3 3.9 8.5 4.8 2.2 1 6.7 2.5 10 3.4 3.3 0.8 10.3 1.6 15.5 1.6 6.2 0.1 11.6-0.5 15.5-1.6 3.3-0.9 8.1-2.8 10.7-4.1 2.7-1.3 7.7-4.9 17.8-13.4l0.1 40.5-2.8 1.4c-1.5 0.7-6.4 2.6-10.8 4.1-4.4 1.5-11.6 3.3-16 4-5.2 0.9-12.4 1.1-20.5 0.7-9.3-0.4-14.8-1.2-21.5-3.2-4.9-1.4-11.9-4-15.5-5.6-3.6-1.7-9-4.7-12-6.7-3-2.1-8.8-6.9-12.9-10.7-4-3.8-9.7-10.6-12.7-15-2.9-4.4-6.7-11.4-8.4-15.5-1.7-4.1-3.7-10-4.5-13-0.8-3-1.9-9.6-2.4-14.5-0.5-5.4-0.5-12.8 0-18.5 0.5-5.2 1.8-12.9 3-17 1.1-4.1 3.7-11.1 5.8-15.5 2.1-4.4 6.6-11.6 9.8-16 3.3-4.4 8.7-10.3 11.9-13.1 3.3-2.8 9-7.2 12.9-9.7 3.9-2.5 10.4-5.9 14.5-7.6 4.1-1.6 10.4-3.7 14-4.7 3.6-0.9 9.4-2 13-2.4 3.6-0.4 8.3-0.8 10.5-0.9zm-162 1.7c3.9 0.3 10.4 1.3 14.5 2.4 4.1 1 10.2 3.1 13.5 4.6 3.3 1.6 8.8 4.7 12.2 7 3.5 2.3 6.5 4.5 6.7 4.9 0.3 0.5-3.5 6.1-17.4 24.3l-5-4.5c-2.8-2.5-7.4-5.6-10.3-7-3.9-1.9-6.9-2.5-12.2-2.6-3.9 0-8.4 0.3-10 0.7-1.6 0.4-4.6 1.5-6.5 2.4-1.9 1-5 3.4-6.8 5.4-1.7 2-3.7 5.5-4.3 7.8-0.6 2.4-0.7 5.6-0.4 7.3 0.4 1.6 1.8 4.5 3.1 6.2 1.3 1.8 4.3 4.4 6.6 5.8 2.4 1.3 11.9 5.5 21.3 9.3 9.4 3.8 19.9 8.7 23.5 10.8 3.6 2.1 8.9 6.1 11.9 8.8 2.9 2.8 6.4 6.9 7.7 9.1 1.2 2.2 3 6.7 3.9 10 0.9 3.4 1.6 10.1 1.6 15.5 0 5.2-0.5 12-1.2 15-0.6 3-2.7 8.9-4.6 13-2.5 5.4-5.4 9.4-10.1 14.3-4.1 4.1-9.2 8.1-13.2 10.2-3.6 1.8-10.1 4.3-14.5 5.6-6.2 1.6-10.6 2.1-19.5 2.1-8.3-0.1-13.7-0.7-19.5-2.2-4.4-1.2-10.5-3.4-13.5-5.1-3-1.6-8.1-4.9-11.3-7.4-3.1-2.5-8.4-7.8-17.6-19l2.7-2.8c1.5-1.6 6.5-6.4 19.7-18.6l4 5.6c2.2 3.1 6.7 7.6 10 10.1 3.3 2.4 8.5 5.1 11.5 6 3.2 0.9 8.9 1.6 13.5 1.6 5.2-0.1 9.3-0.7 11.7-1.7 2.1-1 5.7-3.4 7.9-5.5 2.3-2 4.8-4.9 5.5-6.5 0.8-1.5 1.8-4.7 2.4-7.2 0.7-3 0.7-6.1 0-9.3-0.5-2.6-2.2-6.5-3.8-8.7-1.7-2.4-5.1-5.2-8.8-7.2-3.2-1.7-11.8-5.4-18.9-8.1-7.1-2.7-15.7-6.2-19-7.9-3.3-1.6-8-4.3-10.5-6-2.5-1.7-6.2-4.8-8.2-7-2-2.1-4.8-6.3-6.2-9.3-1.4-3-3-8.8-3.6-12.8-0.7-4.9-0.7-9.5 0-14.2 0.6-3.8 1.9-9.4 2.9-12.3 1.1-2.8 3.9-7.9 6.3-11.2 2.4-3.3 6.6-7.6 9.4-9.6 2.7-2 7.1-4.8 9.9-6.2 2.7-1.4 7-3 9.5-3.7 2.5-0.7 7.2-1.6 10.5-2 3.3-0.4 9.1-0.5 13-0.2zm-287.2 1.9l33.6 0.6c23 0.4 35.8 1.1 40.6 2 3.8 0.8 10.8 2.8 15.5 4.4 4.7 1.5 12.1 4.9 16.4 7.3 4.3 2.5 11.3 7.6 15.4 11.5 4.1 3.8 9.4 9.7 11.8 13 2.3 3.3 5.8 9.4 7.8 13.5 1.9 4.1 4.5 11.5 5.8 16.5 1.8 7.4 2.2 11.5 2.1 23 0 10.9-0.5 15.7-2.2 22-1.2 4.4-4 11.8-6.2 16.5-2.2 4.7-6 11.2-8.4 14.5-2.3 3.3-7.1 8.7-10.6 12.1-3.5 3.3-9.3 8-12.9 10.4-3.6 2.4-8.8 5.4-11.5 6.6-2.8 1.2-8.2 3.1-12 4.2-3.9 1.2-10.5 2.6-14.8 3.1-4.2 0.6-21.9 1.1-70.7 1.1zm166.7 0.3h35v182h-35zm522.2-0.1l38.3 0.6 24 60.6c13.2 33.4 24.2 60.9 24.5 61.2 0.3 0.4 11.5-26.5 24.8-59.6 13.4-33.1 24.6-60.8 25-61.5 0.5-0.9 5.3-1.2 37.9-0.7l-78.4 186-18.8 0.5-34.8-84.3c-19.1-46.3-36.5-88.4-38.6-93.5zm191.7 0.1h100v31h-65v41h63v30h-63v50h65v30h-100zm124.3-0.3l33.1 0.5c26 0.4 34.8 0.9 40.6 2.2 4.2 1 10.7 3.2 14.5 4.9 4.3 1.9 9.4 5.4 12.9 8.7 3.2 3 6.9 7.3 8.2 9.5 1.3 2.2 3.3 6.7 4.5 10 1.9 4.9 2.2 8.1 2.3 18.5 0 10.4-0.4 13.5-2.3 19-1.2 3.5-3.6 8.7-5.4 11.4-1.7 2.7-5.2 6.7-7.7 8.8-2.4 2.2-6.5 5-9 6.2-2.4 1.3-7.1 3.2-10.2 4.2-3.2 1-5.7 2.3-5.4 2.9 0.2 0.5 12.4 17.2 27.1 37 14.7 19.8 27.3 36.5 27.9 37.2 0.9 1.1-2.9 1.3-41.9 1.3l-24.5-36.5c-22.2-33.2-24.7-36.5-30-36.5v73h-35zm34.8 85.2c16.7-1 24.3-2.1 27.7-3.1 4.7-1.4 7.4-3 10.8-6.4 3.2-3.2 4.9-6 6-9.8 0.8-2.9 1.5-7.1 1.5-9.5 0-2.3-0.6-6.3-1.3-8.9-0.7-2.6-2.8-6.5-4.8-8.8-2-2.3-5.9-5-9-6.4-3-1.3-9-2.7-13.4-3.2-4.4-0.5-10.1-0.9-12.8-0.9h-4.7zm-1005 67.5c23.6-1.1 31.2-2.1 36.5-3.5 4.4-1.2 10.2-3.3 13-4.8 2.7-1.5 8-5.6 11.6-9.2 4.8-4.8 7.7-8.8 10.8-15 2.3-4.7 4.8-11.9 5.7-16 1.1-5.1 1.4-10.2 1.1-16-0.3-4.7-1.5-11.7-2.7-15.5-1.2-3.9-3.6-9.5-5.3-12.5-1.8-3-5.5-8-8.3-11-2.8-3-7.5-7.1-10.5-9-3-1.9-8.8-4.5-12.9-5.9-6.2-2-10.2-2.5-23.1-2.9l-15.7-0.5z"/>
</svg>