<svg version="1.2" xmlns="http://www.w3.org/2000/svg" viewBox="0 0 512 80" width="128" height="20">
	<path id="mastercard" fill-rule="evenodd" fill="currentColor" d="m19.5 26.1l0.6 6.5c2.8-3.5 7.8-7.8 14.1-7.8 6.3 0 11.9 1.9 15.3 7.8 3.6-4.1 10.9-7.8 17.2-7.8 10 0 18.5 4.7 18.5 22.6v25.6h-14v-22.9c0-8.7-1.7-12.4-7.8-12.4-5.2 0-9.3 3.5-10.8 7 0.1 0.9 0.1 1.7 0.1 2.7v25.6h-14v-22.9c0-8.7-1.8-12.4-7.8-12.4-5.2 0-9.3 3.5-10.8 7.1v28.2h-14v-46.9zm110.1 46.9l-0.6-5.8c-2.9 3.9-7.8 7.1-15 7.1-11.4 0-22.3-9.6-22.3-24.7 0-14.7 12.1-24.8 22.3-24.8 7.2 0 12.4 3.4 15 7.2l0.6-5.9h13.4v46.9zm-11.8-35.9c-6.7 0-12.1 5.7-12.1 12.4 0 6.7 5.4 12.3 12.1 12.3 6.7 0 11.9-5.6 11.9-12.3 0-6.7-5.6-12.4-11.9-12.4zm46.7 1.2c0 0.9 0.9 1.6 3.7 2.6 12 4.4 19.4 8.8 19.4 18.8 0 8.2-7 14.6-17.2 14.6-7.5 0-15.7-3.9-20-10.8l9.4-6.9c2.5 3.1 6 5 9.2 5 2 0 4.6-0.6 4.6-1.9 0-2.6-4.2-3.9-6.8-4.8-11.8-4.5-15.6-9.4-15.6-16.9 0-7.1 7.3-13.2 17.1-13.2 7.5 0 13.9 2.3 18.6 7.8l-9.3 6.9c-2.5-2.4-6.8-3.3-8.3-3.3-2.1 0-4.8 0.4-4.8 2.1zm46.6-22.9v10.7h12.2v13.1h-12.2v19.9c0 1.7 0.4 2.7 1.5 2.7 1.5 0 3.7-3.1 4.3-4.1l9.9 7.4c-4.9 6.3-8.6 9.2-14.2 9.2-7.7 0-15.5-4.9-15.5-14.5v-20.6h-5.7v-13.1h5.7v-10.7zm63.8 34.2v4.5h-32.9c1.5 5.1 6.1 8 10.9 8 4.5 0 7.6-1.1 10.4-4l9.5 7.3c-4 4.8-12.3 8.9-19.9 8.9-15.7 0-23.3-13.1-23.3-24.6 0-11.9 9-24.9 23.3-24.9 14.9 0 22 14.6 22 24.8zm-32.3-6.2h19.8c-0.8-3.6-5.1-7.2-9.5-7.2-5.2 0-9.2 3.5-10.3 7.2zm53.4-17.3l0.6 6.5c2.8-3.5 8-7.8 14.2-7.8v14.1c-6.5 0-12.1 2.4-14.2 7.6v26.5h-14.1v-46.9zm62.4 38c-4.5 6.2-11.8 10.2-19.8 10.2-13.5 0-24.4-11.1-24.4-24.7 0-13.5 10.9-24.8 24.4-24.8 7.8 0 14.7 3.8 19.2 9.5l-10.2 7.7c-2.2-2.6-5.5-4.5-9.1-4.5-6.4 0-11.5 5.7-11.5 12.1 0 6.5 5.1 11.9 11.5 11.9 4 0 7.6-2.1 9.7-5.2zm40.8 8.9l-0.6-5.9c-2.8 4-7.7 7.2-15 7.2-11.4 0-22.2-9.6-22.2-24.7 0-14.7 12.1-24.8 22.2-24.8 7.3 0 12.4 3.4 15 7.2l0.6-5.9h13.4v46.9zm-11.8-36c-6.7 0-12 5.8-12 12.5 0 6.7 5.3 12.3 12 12.3 6.8 0 11.9-5.6 11.9-12.3 0-6.7-5.6-12.5-11.9-12.5zm48.8-10.9l0.6 6.5c2.8-3.6 8-7.8 14.3-7.8v14c-6.5 0-12.1 2.4-14.3 7.7v26.5h-14v-46.9zm56 46.9l-0.6-5.9c-2.9 4-7.8 7.2-15 7.2-11.4 0-22.3-9.6-22.3-24.7 0-14.7 12.2-24.8 22.3-24.8 7.2 0 12.4 3.4 15 7.2v-23.5h14v64.5zm-11.8-36c-6.7 0-12 5.8-12 12.5 0 6.7 5.3 12.3 12 12.3 6.7 0 11.9-5.6 11.9-12.3 0-6.7-5.6-12.5-11.9-12.5z"/>
</svg>