<svg version="1.2" xmlns="http://www.w3.org/2000/svg" viewBox="0 0 1168 384" width="73" height="24">
	<path fill-rule="evenodd" fill="currentColor" d="m766.5 6.6c3.9 0.2 11 0.6 16 0.9 5 0.3 13.3 1.3 18.5 2.1 5.2 0.9 14 2.7 19.5 4 5.5 1.4 14 3.8 28 8.5l-2.7 13.2c-1.5 7.3-5.1 24.2-13.2 62.2l-6.5-2.6c-3.7-1.5-11-4-16.4-5.8-5.3-1.7-15-4.1-21.5-5.3-9.4-1.8-15.3-2.2-30.2-2.2-14.8 0-19.9 0.3-25.5 1.8-3.9 1-9.6 3.2-12.8 4.7-3.1 1.6-7.3 4.4-9.3 6.1-2 1.8-4.8 5.3-6.3 7.8-2 3.5-2.6 5.8-2.6 10.5 0 4.7 0.6 7 2.6 10.5 1.5 2.5 4.5 6.2 6.8 8.2 2.2 2.1 7.8 6.2 12.3 9.2 4.6 2.9 15.9 9.4 25.3 14.4 9.4 4.9 20.6 11.1 25 13.7 4.4 2.6 10.9 6.8 14.5 9.3 3.6 2.5 10 8 14.4 12.1 4.3 4.2 9.8 10.1 12.1 13.1 2.4 3 6.1 9.3 8.4 14 2.2 4.7 4.8 11.2 5.6 14.5 0.9 3.3 1.9 10.1 2.4 15 0.4 4.9 0.4 13.3 0 18.5-0.5 5.2-1.6 12.6-2.5 16.5-0.8 3.9-2.7 9.9-4 13.5-1.4 3.6-4.3 9.9-6.6 14-2.2 4.1-5.9 10-8.3 13-2.3 3-7.3 8.5-11.1 12.3-3.8 3.7-10.5 9.3-14.9 12.5-4.4 3.1-12.7 8.1-18.5 10.9-5.8 2.9-15.2 6.8-21 8.7-5.8 2-15.7 4.6-22 6-6.3 1.3-16.7 3-23 3.7-6.3 0.7-19.6 1.3-29.5 1.3-10-0.1-24.6-0.8-33-1.8-8.3-0.9-20.6-2.8-27.5-4.2-6.9-1.5-16.1-3.6-20.5-4.9-4.4-1.3-10.5-3.3-13.5-4.4-3-1.2-6.1-2.4-6.8-2.9-1-0.5 0.5-9.2 6.9-39.2 4.5-21.2 8.3-38.7 8.5-39 0.2-0.3 3.9 1.2 8.2 3.2 4.2 2.1 10.8 4.9 14.7 6.4 3.9 1.4 11 3.9 16 5.4 5 1.5 14 3.6 20 4.6 8.2 1.4 16.1 1.9 31 1.9 17.9 0 20.9-0.3 28-2.3 4.4-1.3 11.1-4 14.9-6 3.8-2.1 8.7-5.7 11-8.3 2.4-2.6 4.8-6.8 5.9-10 0.9-3 1.7-6.8 1.7-8.4 0-1.6-0.7-5.4-1.5-8.2-1.1-3.8-3-6.9-6.8-10.9-2.8-3.1-9.2-8.3-14.2-11.6-5-3.3-15.5-9.2-23.5-13.1-8-3.8-19-9.7-24.5-12.9-5.5-3.3-12.5-7.8-15.5-10.1-3-2.2-8.6-6.8-12.4-10.1-3.8-3.4-9.6-9.5-12.9-13.6-3.3-4.1-7.7-11-9.8-15.2-2.2-4.3-4.8-11.1-5.9-15-1.1-4-2.3-11.6-2.6-16.8-0.4-5.6-0.2-13.2 0.6-18.5 0.6-5 2.3-12.6 3.7-17 1.4-4.4 4.1-11.2 6-15 2-3.8 5.2-9.5 7.2-12.5 1.9-3 7.6-9.7 12.6-14.8 5.6-5.9 12.9-12 19.5-16.5 5.8-3.9 14.5-9 19.5-11.2 5-2.3 12.4-5.4 16.5-6.8 4.1-1.4 11.1-3.5 15.5-4.6 4.4-1.1 12.3-2.7 17.5-3.6 5.2-0.9 15.4-2 22.5-2.4 7.1-0.5 16.1-0.7 20-0.5zm-755.3 6.4h81.6c69.5 0 82.6 0.2 87.4 1.5 3.2 0.8 7.5 2.3 9.5 3.4 2.1 1 6 3.9 8.8 6.3 2.7 2.5 6.4 7.1 8.2 10.4 1.7 3.2 3.9 8.8 4.7 12.4 0.9 3.6 10.2 52.2 20.7 108 10.5 55.8 19.2 101.7 19.5 102 0.2 0.3 0.5 0.3 0.7 0 0.2-0.3 22-55.2 96.3-243.5l97.4-0.5-12.8 30.3c-7 16.6-40.9 97.4-137.7 328.7h-98.5l-2.1-8.7c-1.1-4.9-18-70.7-37.6-146.3-19.5-75.6-36.4-140-37.5-143-1.2-3-3.3-7.3-4.8-9.5-1.5-2.2-5.6-5.9-9.1-8.2-3.5-2.3-11.1-6.3-16.9-8.8-5.8-2.6-18.4-7.3-28-10.5-9.6-3.3-24.9-7.8-34-10.1-9.1-2.2-16.6-4.2-16.8-4.2-0.1-0.1 0-2.3 0.4-4.9zm521.7 0c43.4 0 46 0.1 45.6 1.7-0.2 1-17.4 81-38 177.8-20.7 96.8-37.8 176.7-38.1 177.7-0.4 1.6-3.5 1.8-46.4 1.8-25.3 0-46-0.3-46-0.5 0-0.3 17.1-80.5 38-178.3 20.9-97.8 38.2-178.3 38.5-179 0.3-1 10.5-1.2 46.4-1.2zm552.6-0.1l36.9 176.8c20.3 97.2 37.1 178 37.6 182.3h-42.5c-23.4 0-42.5-0.3-42.5-0.5 0-0.3-2.1-10.3-4.5-22.3-2.5-12-5-23.9-6.5-31.2h-120l-4.6 12.7c-2.5 7-6.9 19.2-14.9 41.3h-48.3c-38.1 0-48.2-0.3-47.9-1.3 0.2-0.7 31.8-76.2 70.1-167.8 38.3-91.5 70.7-168.3 72-170.4 1.3-2.2 4.4-6 6.9-8.3 2.6-2.3 6.1-5 7.9-5.9 1.8-0.9 5.7-2.5 8.8-3.5 4.9-1.6 10.1-1.7 91.5-1.9zm-90 163.3c-13.1 36.4-24 66.8-24.2 67.5-0.3 1 7.9 1.2 38.4 1.2h38.8c-21.5-104.6-28-134.9-28.4-134.9-0.4 0-11.5 29.8-24.6 66.2z"/>
</svg>